<svg id="Layer_1" data-name="Layer 1" xmlns="http://www.w3.org/2000/svg" viewBox="0 0 3133.25 744.92"><defs><style>.cls-1{fill:#20639b;}.cls-2{fill:#05c8d7;}.cls-3{fill:#9d73e0;}.cls-4{fill:#ffa300;}.cls-5{fill:#67e055;}.cls-6{fill:#fff;}</style></defs><title>official logo</title><path class="cls-1" d="M2464.33,188.65V144.32H2420a64.77,64.77,0,0,1,44.33,44.33Z"/><path class="cls-2" d="M979,269.42c-14.91-17.16-37-27.55-67.29-27.55-59.16,0-107.94,51.94-107.94,119.23s48.78,119.22,107.94,119.22c30.25,0,52.38-10.39,67.29-27.55A21.22,21.22,0,0,0,1000.18,474h46.52V248.19H979ZM925.21,416.19c-31.16,0-53.74-21.22-53.74-55.09S894.05,306,925.21,306,979,327.23,979,361.1,956.38,416.19,925.21,416.19ZM1231.4,241.87c-30.26,0-52.39,10.39-67.29,27.55v-3.84a17.39,17.39,0,0,0-17.39-17.39h-50.35V496.58a67.74,67.74,0,0,0,67.74,67.74V452.77c14.9,17.16,37,27.55,67.29,27.55,59.16,0,107.93-51.93,107.93-119.22S1290.56,241.87,1231.4,241.87Zm-13.55,174.32c-31.16,0-53.74-21.22-53.74-55.09s22.58-55.1,53.74-55.1,53.74,21.23,53.74,55.1S1249,416.19,1217.85,416.19Zm294.89-174.32c-30.25,0-52.38,10.39-67.29,27.55a21.23,21.23,0,0,0-21.22-21.23h-46.52V498.62a65.7,65.7,0,0,0,65.7,65.7h2V452.77c14.91,17.16,37,27.55,67.29,27.55,59.17,0,107.94-51.93,107.94-119.22S1571.91,241.87,1512.74,241.87ZM1499.2,416.19c-31.17,0-53.75-21.22-53.75-55.09S1468,306,1499.2,306s53.74,21.23,53.74,55.1S1530.36,416.19,1499.2,416.19Zm219.47-102.06c0-8.13,7.23-12.65,19-12.65,12.72,0,21.16,5.92,27.29,14.95a6.42,6.42,0,0,0,8.35,2l46.31-25a6.43,6.43,0,0,0,2.3-9.27c-19.34-28.11-50-42.35-84.25-42.35-47,0-88.52,24.84-88.52,74.06,0,78.14,111.1,65,111.1,89.88,0,9-8.13,14-24.39,14-17.27,0-29.09-7.17-35.74-20.33a6.44,6.44,0,0,0-8.94-2.74l-29.28,16.67a24.54,24.54,0,0,0-5.29,38.63c19.13,19.15,46.31,28.28,79.25,28.28,48.78,0,93.94-22.13,93.94-74.06C1829.77,322.71,1718.67,339.87,1718.67,314.13Zm280.93,94.71A65.16,65.16,0,0,0,2064.76,474h2.58V144.32H1999.6ZM2281,269.42c-14.9-17.16-37-27.55-67.29-27.55-59.16,0-107.93,51.94-107.93,119.23s48.77,119.22,107.93,119.22c30.26,0,52.39-10.39,67.29-27.55v5.88A15.35,15.35,0,0,0,2296.3,474h52.4V248.19H2281Zm-53.74,146.77c-31.16,0-53.74-21.22-53.74-55.09s22.58-55.1,53.74-55.1S2281,327.23,2281,361.1,2258.37,416.19,2227.21,416.19Zm306.18-174.32c-30.25,0-52.38,10.39-67.29,27.55V225.61a67.74,67.74,0,0,0-67.74-67.74V474h67.74V452.77c14.91,17.16,37,27.55,67.29,27.55,59.17,0,107.94-51.93,107.94-119.22S2592.56,241.87,2533.39,241.87Zm-13.54,174.32c-31.17,0-53.75-21.22-53.75-55.09s22.58-55.1,53.75-55.1,53.74,21.23,53.74,55.1S2551,416.19,2519.85,416.19ZM1907.51,240.47a40.65,40.65,0,1,0,40.65,40.65A40.64,40.64,0,0,0,1907.51,240.47Zm0,152.23a40.65,40.65,0,1,0,40.65,40.65A40.64,40.64,0,0,0,1907.51,392.7Z"/><path class="cls-2" d="M337.78,590,170.86,423.12a48.81,48.81,0,0,1,0-69L337.78,187.2a48.78,48.78,0,0,1,69,0L573.7,354.11a48.81,48.81,0,0,1,0,69L406.78,590A48.78,48.78,0,0,1,337.78,590Z"/><circle class="cls-3" cx="456.55" cy="150.33" r="46" transform="translate(-21.51 100.32) rotate(-12.25)"/><circle class="cls-4" cx="559.63" cy="142.33" r="29.34" transform="translate(315.04 665.42) rotate(-79.21)"/><circle class="cls-5" cx="526.16" cy="228.85" r="38.47" transform="translate(-47.32 210.34) rotate(-21.66)"/><path class="cls-6" d="M472.9,305.34l-86,86.05a20.32,20.32,0,0,1-28.73,0l-86.31-86.31-84.26,84.26L288.22,490l-.05.06L358.06,560a20.32,20.32,0,0,0,28.73,0L557.16,389.6Z"/></svg>